<svg xmlns="http://www.w3.org/2000/svg" xmlns:xlink="http://www.w3.org/1999/xlink" width="80" height="100" viewBox="0 0 80 100">
  <defs>
    <clipPath id="clip-path">
      <path id="Tracé_37" data-name="Tracé 37" d="M0,23H75.243V-77H0Z" transform="translate(0 77)" fill="#00AB91"/>
    </clipPath>
    <clipPath id="clip-_80x100_5">
      <rect width="80" height="100"/>
    </clipPath>
  </defs>
  <g id="_80x100_5" data-name="80x100_5" clip-path="url(#clip-_80x100_5)">
    <g id="logo" transform="translate(0 77)">
      <g id="Groupe_22" data-name="Groupe 22" transform="translate(0 -77)" clip-path="url(#clip-path)">
        <g id="Groupe_9" data-name="Groupe 9" transform="translate(18.309 32.821)">
          <path id="Tracé_24" data-name="Tracé 24" d="M1.662,3.385a20.962,20.962,0,0,0-7.2-3.951c-.069-.129.029-.192.084-.262A28.033,28.033,0,0,1-2.464-3.982,28.17,28.17,0,0,1,10.47-10.648a31.117,31.117,0,0,1,3.508-.551,27.123,27.123,0,0,1,4.147-.094,29.508,29.508,0,0,1,9.736,2.145,28.523,28.523,0,0,1,7.5,4.517,27.9,27.9,0,0,1,7.4,9.586,27.38,27.38,0,0,1,2.17,6.7c.184.987.318,1.981.408,2.982a28.544,28.544,0,0,1,.044,4.495,28.237,28.237,0,0,1-2.614,10.179A27.992,27.992,0,0,1,37.9,36.534a28.634,28.634,0,0,1-11.216,7.443c-.417.153-.838.295-1.258.435-.291.1-.316.071-.3-.214a26.586,26.586,0,0,1,.351-2.992A43.366,43.366,0,0,1,26.7,36.121a.857.857,0,0,1,.408-.521,19.93,19.93,0,0,0,6.465-6.625,23.051,23.051,0,0,0,2.908-7.205,21.553,21.553,0,0,0,.456-3.174A19.522,19.522,0,0,0,37,16.572a20.445,20.445,0,0,0-2.6-9.431A20.352,20.352,0,0,0,14.941-3.184a18.6,18.6,0,0,0-5.5,1.314A21.166,21.166,0,0,0,3.063,2.111c-.391.353-.765.726-1.147,1.088a.541.541,0,0,1-.255.186" transform="translate(5.564 11.331)" fill="#00AB91"/>
        </g>
        <g id="Groupe_10" data-name="Groupe 10" transform="translate(11.567 51.949)">
          <path id="Tracé_25" data-name="Tracé 25" d="M0,2.281C.017.87.077-.382.206-1.627A21.917,21.917,0,0,1,1.526-7.286c.012-.031.023-.062.036-.092.11-.274.123-.281.395-.238A13.036,13.036,0,0,1,8.105-4.98c.336.264.644.565.969.843a.468.468,0,0,1,.161.562,12.64,12.64,0,0,0-.488,2.114c-.052.374-.116.749-.14,1.126C8.565.29,8.518.917,8.531,1.542c.016.822.043,1.645.132,2.466a21.064,21.064,0,0,0,.517,2.914A20.381,20.381,0,0,0,23.035,21.459a20.366,20.366,0,0,0,3.813.774c.575.061,1.149.079,1.726.1.114.005.23,0,.345.016a.137.137,0,0,1,.125.175,1.638,1.638,0,0,1-.043.192c-.335,1.377-.6,2.766-.806,4.168-.1.668-.158,1.34-.235,2.01-.031.278-.058.557-.091.835-.021.177-.061.217-.261.214-.643-.01-1.286-.014-1.927-.049-.509-.029-1.014-.1-1.522-.152a21.541,21.541,0,0,1-3.96-.8,27.965,27.965,0,0,1-7.675-3.56,27.992,27.992,0,0,1-6.5-5.952,27.517,27.517,0,0,1-4.881-9.364,26.721,26.721,0,0,1-.875-4.1A33.534,33.534,0,0,1,0,2.281" transform="translate(0 7.635)" fill="#00AB91"/>
        </g>
        <g id="Groupe_11" data-name="Groupe 11" transform="translate(3.372 45.156)">
          <path id="Tracé_26" data-name="Tracé 26" d="M.012,1.222c-.074-.086-.047-.188-.047-.283q0-1.558,0-3.116a1.407,1.407,0,0,0,0-.148.288.288,0,0,1,.2-.3,13.674,13.674,0,0,1,1.658-.634A18.834,18.834,0,0,1,5.3-3.975a20.465,20.465,0,0,1,3.9-.045,21.51,21.51,0,0,1,5.618,1.255A21.869,21.869,0,0,1,19.9-.054c.8.558,1.542,1.182,2.29,1.8A16.4,16.4,0,0,0,25.1,3.691a6.945,6.945,0,0,0,2.253.686,8.416,8.416,0,0,0,2.456-.082c.927-.136,1.86-.235,2.792-.34.555-.064,1.113-.108,1.67-.161A2.9,2.9,0,0,1,35.725,4a1.614,1.614,0,0,1,.994,1.319c.078.521.127,1.045.187,1.569q.113,1.005.222,2.013a.78.78,0,0,0,.59.712q.612.191,1.221.394a4.082,4.082,0,0,1,.6.225,1.4,1.4,0,0,1,.822,1.449c-.04.492-.1.983-.144,1.475-.008.079,0,.161,0,.239.106.036.153-.04.212-.095a2.053,2.053,0,0,1,.919-.552,1.441,1.441,0,0,1,1.7.987,2.361,2.361,0,0,1,.073.635,8.133,8.133,0,0,0,.029.89,1.405,1.405,0,0,0,.784,1.178,4.54,4.54,0,0,0,1.749.481,4.449,4.449,0,0,1,1.519.4,2,2,0,0,1,1.2,1.842,3.235,3.235,0,0,1-.321,1.482c-.8,1.756-1.508,3.545-2.169,5.356a63.446,63.446,0,0,0-2.251,7.569c-.286,1.235-.575,2.469-.771,3.722q-.22,1.414-.358,2.84a33.034,33.034,0,0,0-.16,4.195,21.544,21.544,0,0,0,.984,6.123c.025.077.045.153.062.206a.158.158,0,0,1-.179.1q-1.58,0-3.162,0c-.255,0-.279-.016-.352-.255a20.659,20.659,0,0,1-.622-2.591,27.93,27.93,0,0,1-.383-5.709q.058-1.652.251-3.3c.17-1.44.408-2.866.7-4.287.332-1.63.749-3.239,1.225-4.832a62.543,62.543,0,0,1,2.636-7.235c.158-.362.322-.722.479-1.084a1.744,1.744,0,0,0,.143-.771.645.645,0,0,0-.566-.7c-.368-.084-.743-.14-1.114-.209a1.766,1.766,0,0,1-1.21-.691,2.155,2.155,0,0,1-.342-1.555q.049-.392.078-.787c.036-.5-.243-.851-.851-.619-.183.07-.36.16-.539.244a1.634,1.634,0,0,1-.662.178.72.72,0,0,1-.83-.661c-.047-.275-.07-.556-.1-.834-.036-.327-.062-.656-.106-.982a.728.728,0,0,0-.681-.719c-.482-.1-.966-.2-1.447-.306a1.713,1.713,0,0,1-1.33-1.062,1.524,1.524,0,0,1-.106-.43q-.1-1.282-.205-2.561c-.025-.295-.047-.591-.088-.884a.854.854,0,0,0-.866-.786,1.983,1.983,0,0,0-.538.056c-1.009.238-2.035.391-3.06.545-.178.026-.355.066-.534.094a8.93,8.93,0,0,1-5.014-.7,18.485,18.485,0,0,1-3.905-2.4c-.506-.4-.994-.814-1.488-1.223a20.057,20.057,0,0,0-4.412-2.7A13.465,13.465,0,0,0,10.681-.015,18.152,18.152,0,0,0,6.444-.165,22.294,22.294,0,0,0,.338,1.151c-.105.039-.2.114-.326.071" transform="translate(0.04 4.092)" fill="#00AB91"/>
        </g>
        <g id="Groupe_12" data-name="Groupe 12" transform="translate(0.019 15.696)">
          <path id="Tracé_27" data-name="Tracé 27" d="M.235,2.55c-.227-.029-.473-.056-.717-.092a.329.329,0,0,1-.284-.3.442.442,0,0,1-.018-.147,1.815,1.815,0,0,1,.5-1.1C-.148.781-.052.747.108.864a.72.72,0,0,0,.561.1C2.432.747,4.174.4,5.928.124,6.773-.009,7.623-.1,8.473-.21c.684-.088,1.37-.175,2.056-.257.653-.079,1.308-.144,1.961-.227.864-.11,1.729-.225,2.591-.349.975-.142,1.951-.294,2.926-.448.925-.145,1.848-.3,2.774-.449q1.069-.171,2.143-.336c.747-.114,1.495-.229,2.244-.335.651-.092,1.3-.177,1.956-.261q1.052-.136,2.1-.265c.687-.082,1.374-.153,2.06-.235s1.37-.173,2.056-.255c.67-.082,1.34-.157,2.01-.234s1.34-.155,2.009-.234c.392-.045.783-.1,1.177-.142,1.112-.114,2.226-.218,3.339-.334,1.079-.113,2.157-.24,3.238-.355.769-.082,1.539-.148,2.308-.234.686-.077,1.37-.171,2.056-.253.67-.081,1.34-.153,2.01-.232q.98-.115,1.96-.235l2.057-.252L57.661-6.4c.636-.078,1.273-.152,1.909-.232q1.323-.168,2.643-.342.953-.127,1.907-.26.756-.107,1.513-.223c1.008-.152,2.017-.3,3.023-.461,1.2-.191,2.4-.379,3.6-.6a.808.808,0,0,1,.93.361,3.71,3.71,0,0,0,.258.3c.122.149.119.178.025.348a.936.936,0,0,1-.739.5c-.861.126-1.716.305-2.575.444-.942.152-1.887.282-2.83.422-1.057.157-2.114.319-3.171.471-.782.113-1.565.213-2.348.316-.978.129-1.956.257-2.936.378-.947.116-1.895.217-2.843.331-.653.079-1.3.173-1.957.253s-1.306.152-1.96.229c-.719.086-1.438.175-2.156.26q-1.005.119-2.01.234-1.177.132-2.353.262-.614.068-1.227.13-1.35.142-2.7.282c-.769.078-1.539.147-2.308.23-.735.079-1.47.173-2.205.257-.67.078-1.34.151-2.01.23-.7.083-1.4.174-2.105.258-.653.079-1.308.153-1.961.231q-1.1.132-2.2.269c-.6.074-1.208.143-1.812.222-.848.109-1.7.219-2.543.343-.992.145-1.982.3-2.973.461-.925.147-1.848.308-2.774.453-.957.151-1.918.291-2.877.436-.536.081-1.073.17-1.61.244-.635.087-1.271.162-1.908.242l-2.205.266c-.636.075-1.275.144-1.91.226-.832.109-1.665.213-2.492.345-1.218.195-2.43.423-3.648.614C1.5,2.434.876,2.48.235,2.55" transform="translate(0.787 8.536)" fill="#00AB91"/>
        </g>
        <g id="Groupe_13" data-name="Groupe 13" transform="translate(4.214 5.328)">
          <path id="Tracé_28" data-name="Tracé 28" d="M0,.281C.027-.03.043-.342.084-.652c.03-.226.1-.275.325-.287a1.686,1.686,0,0,1,.945.232.421.421,0,0,1,.24.447c-.01.082-.025.162-.034.244a3.5,3.5,0,0,0,.7,2.6A1.227,1.227,0,0,0,3.42,3.1c.148-.014.316-.069.422.053a.886.886,0,0,1,.255.571c0,.1-.009.2-.012.3-.013.5-.048.54-.56.592a2.6,2.6,0,0,1-2.43-1.026A5.035,5.035,0,0,1,0,.281" transform="translate(0 0.942)" fill="#00AB91"/>
        </g>
        <g id="Groupe_14" data-name="Groupe 14" transform="translate(56.822 0)">
          <path id="Tracé_29" data-name="Tracé 29" d="M.531.315a.688.688,0,0,1-.853.731A1.251,1.251,0,0,0-.515,1.01,1.661,1.661,0,0,1-1.735.193a.2.2,0,0,1-.01-.231,1.794,1.794,0,0,1,.432-.595c.116-.092.229-.187.34-.284A.437.437,0,0,1-.427-.99,2.027,2.027,0,0,1,.473.023,1.325,1.325,0,0,1,.531.315" transform="translate(1.778 1.055)" fill="#00AB91"/>
        </g>
        <g id="Groupe_15" data-name="Groupe 15" transform="translate(18.779 16.3)">
          <path id="Tracé_30" data-name="Tracé 30" d="M0,.05A.438.438,0,0,1,.021-.083a.187.187,0,0,1,.1-.083c.064-.016.07.047.071.088C.191,0,.184.074.182.15L0,.05" transform="translate(0 0.169)" fill="#00AB91"/>
        </g>
        <g id="Groupe_16" data-name="Groupe 16" transform="translate(64.551 7.409)">
          <path id="Tracé_31" data-name="Tracé 31" d="M.046.049C.03.075.021.111,0,.125a.324.324,0,0,1-.121.04c-.006,0-.027-.051-.03-.078A.279.279,0,0,1-.066-.163c.023.078.014.173.112.212" transform="translate(0.154 0.163)" fill="#00AB91"/>
        </g>
        <g id="Groupe_17" data-name="Groupe 17" transform="translate(66.132 8.282)">
          <path id="Tracé_32" data-name="Tracé 32" d="M0,.029C.014,0,.022-.033.044-.049A.316.316,0,0,1,.162-.1.179.179,0,0,1,.195-.02.269.269,0,0,1,.109.229C.086.156.09.067,0,.029" transform="translate(0 0.097)" fill="#00AB91"/>
        </g>
        <g id="Groupe_18" data-name="Groupe 18" transform="translate(54.651 12.043)">
          <path id="Tracé_33" data-name="Tracé 33" d="M0,.025C.016-.013.032-.083.048-.083c.083,0,.058.07.056.122L0,.025" transform="translate(0 0.083)" fill="#00AB91"/>
        </g>
        <g id="Groupe_19" data-name="Groupe 19" transform="translate(13.082 5.238)">
          <path id="Tracé_34" data-name="Tracé 34" d="M14.236.1A1.174,1.174,0,0,0,13.6-.314a.362.362,0,0,0-.4.108c-.064.075-.126.152-.186.231q-.886,1.157-1.771,2.316a14.049,14.049,0,0,1-1.494,1.71,6.147,6.147,0,0,1-1.143.858,2,2,0,0,1-.787.271.671.671,0,0,1-.794-.435.785.785,0,0,1-.071-.283c-.013-.2-.013-.395-.012-.592a4.534,4.534,0,0,1,.17-1.021,1.949,1.949,0,0,0-.073-1.165A1.32,1.32,0,0,0,5.84.812a1.369,1.369,0,0,0-.979.4c-.286.273-.568.551-.851.826-.219.026-.156-.1-.112-.212.058-.29.113-.581.179-.869A1.176,1.176,0,0,0,3.806,0a.242.242,0,0,0-.3-.1c-.091.039-.195.094-.284.048C2.985-.175,2.852-.031,2.7.1A13.047,13.047,0,0,0,.217,3.094c-.6.962-1.182,1.942-1.766,2.914A9.075,9.075,0,0,1-2.9,7.769a3.158,3.158,0,0,1-.842.662.458.458,0,0,1-.19-.238,5.417,5.417,0,0,1-.477-1.448c-.058-.357-.108-.716-.165-1.073-.091-.586-.162-1.174-.195-1.766,0-.066,0-.132-.009-.2a.366.366,0,0,0-.258-.329A1.917,1.917,0,0,0-5.9,3.257a.4.4,0,0,0-.405.361,1.461,1.461,0,0,1-.218.494Q-7.1,5.2-7.681,6.295c-.117.217-.236.434-.368.643a3.781,3.781,0,0,1-.865,1.006c-.048.038-.113.09-.177.035a.2.2,0,0,1-.047-.127A6.324,6.324,0,0,1-9.1,6.669c.091-.6.164-1.206.258-1.808a12.545,12.545,0,0,1,.284-1.552A2.688,2.688,0,0,1-8.02,2.1a.32.32,0,0,0,.061-.181A2.328,2.328,0,0,0-9.016-.026,1.094,1.094,0,0,0-9.489-.15a2.271,2.271,0,0,0-1.143.239,6.694,6.694,0,0,0-2.534,2.3,9.726,9.726,0,0,0-1.408,3.4c-.025.112-.044.226-.079.335a.154.154,0,0,1-.229.11.354.354,0,0,0-.5.175c-.052.084-.114.162-.171.243a14.26,14.26,0,0,1-1.334,1.587.931.931,0,0,1-.442.3.3.3,0,0,1-.349-.109,2.606,2.606,0,0,1-.364-.642,6.025,6.025,0,0,0-.33-.77,8.961,8.961,0,0,1-.568-1.313A8.839,8.839,0,0,0-19.4,4.618a1.183,1.183,0,0,0-.8-.664.673.673,0,0,0-.64.114,1.668,1.668,0,0,0-.381.449c-.2.322-.4.645-.61.958a5.678,5.678,0,0,0-.638,1.278c-.134.371-.277.739-.416,1.109A.436.436,0,0,1-22.913,8a.171.171,0,0,1-.1.083c-.065.017-.069-.047-.071-.087,0-.077,0-.153.005-.229h0a11.816,11.816,0,0,0-.605-2.735,1.39,1.39,0,0,0-.1-.226.911.911,0,0,0-.877-.527,1.273,1.273,0,0,0-.97.406,4.058,4.058,0,0,0-.448.525c-.4.642-.771,1.3-1.156,1.948-.142.24-.283.481-.43.717-.122.2-.251.387-.375.579a.609.609,0,0,1-.068.117c-.036.039-.095.038-.106-.017a.4.4,0,0,1,.07-.394h0c.081-.57.164-1.14.243-1.71.057-.423.1-.849.168-1.271.051-.342.134-.679.175-1.021a4.353,4.353,0,0,1,.2-1.016.729.729,0,0,0-.025-.529.218.218,0,0,0-.217-.168,3.56,3.56,0,0,1-.73-.105c-.323-.069-.473.013-.555.327a5.813,5.813,0,0,1-.373.912c-.088.195-.191.383-.271.582a9.434,9.434,0,0,1-.873,1.6c-.387.592-.77,1.187-1.161,1.777a15.067,15.067,0,0,1-1.456,1.806,3.1,3.1,0,0,1-1.486.832,1.316,1.316,0,0,1-1.13-.186.114.114,0,0,1-.047-.168c.094-.134.2-.262.3-.392a12.366,12.366,0,0,0,1.992-3.5,4.086,4.086,0,0,0,.188-1.8,1.581,1.581,0,0,0-1.079-1.351,2.17,2.17,0,0,0-.731-.077,1.472,1.472,0,0,0-1.109.453,3.84,3.84,0,0,0-.344.353A6.281,6.281,0,0,0-37.7,6.12a7.491,7.491,0,0,0,.03,3.091.694.694,0,0,1-.058.471,5.2,5.2,0,0,1-1.565,1.882.8.8,0,0,1-.5.175c-.169,0-.23-.036-.284-.212a6,6,0,0,1-.294-1.7,35.043,35.043,0,0,1,.081-4.492A6.609,6.609,0,0,1-40.1,4.272a10.859,10.859,0,0,0,.339-1.491,6.565,6.565,0,0,1,.474-1.656,3.159,3.159,0,0,0,.125-.374,1.227,1.227,0,0,0-.04-.681c-.012-.039-.062-.1-.093-.1a2.308,2.308,0,0,1-.884-.286c-.179-.073-.3-.019-.408.168a4.746,4.746,0,0,0-.573,1.36c-.119.53-.212,1.065-.316,1.6-.147.743-.2,1.5-.388,2.236-.117.462-.2.932-.309,1.4-.06.253-.138.294-.327.145a2.37,2.37,0,0,0-1.584-.431,1.677,1.677,0,0,0-.756.2,3.577,3.577,0,0,0-1.344,1.206,8.109,8.109,0,0,0-.655,1.161,10.142,10.142,0,0,0-.794,2.638,6.747,6.747,0,0,0,.027,1.181,1.391,1.391,0,0,0,.122.523,3.274,3.274,0,0,0,.578.914,1.641,1.641,0,0,0,.956.575,2.094,2.094,0,0,0,1.649-.306,3.766,3.766,0,0,0,.722-.67,9.594,9.594,0,0,0,1.621-2.642c.144-.118.13.049.181.1.081.336.145.677.247,1.005a2.613,2.613,0,0,0,.5.9.971.971,0,0,0,.683.352,2.71,2.71,0,0,0,2.158-.639,8.9,8.9,0,0,0,1.257-1.322c.056-.075.088-.181.236-.178a5.519,5.519,0,0,0,.992.492.725.725,0,0,0,.283.077,3.571,3.571,0,0,0,1.927-.278,1.339,1.339,0,0,1,.226-.1,3.017,3.017,0,0,0,1.116-.71A11.887,11.887,0,0,0-31.03,9.395,11.357,11.357,0,0,0-29.88,7.731c.058-.1.105-.236.281-.275-.022.183-.032.347-.061.508a6.611,6.611,0,0,0,.043,2.164.974.974,0,0,0,.943.706,1.223,1.223,0,0,0,.327-.1A3.4,3.4,0,0,0-26.9,9.508c.639-.939,1.214-1.918,1.764-2.912.052-.1.083-.222.239-.247a1.262,1.262,0,0,1,.083.221c.053.291.113.582.144.875a14.016,14.016,0,0,0,.336,1.942,1.777,1.777,0,0,0,.17.462.921.921,0,0,0,.7.49,1.2,1.2,0,0,0,1.149-.418,3.952,3.952,0,0,0,.651-1.044q.329-.8.627-1.61a4.456,4.456,0,0,1,.456-.927c.034-.052.066-.126.143-.1a.178.178,0,0,1,.095.1,8.688,8.688,0,0,0,.692,1.527,1.092,1.092,0,0,1,.11.274,4.242,4.242,0,0,0,.781,1.419,1.357,1.357,0,0,0,1.16.553,2.185,2.185,0,0,0,1.721-.719c.317-.356.639-.709.961-1.061.062-.069.106-.173.283-.147a3.494,3.494,0,0,0,.266.294.918.918,0,0,0,.63.249,1.843,1.843,0,0,0,.995-.23,6.6,6.6,0,0,0,1.8-1.6c.075-.1.116-.239.287-.266a1.189,1.189,0,0,1,.009.2,9.33,9.33,0,0,0,.018,1.627,1.379,1.379,0,0,0,.209.7.944.944,0,0,0,.706.49A2.1,2.1,0,0,0-8.2,9.32a5.352,5.352,0,0,0,.573-.468,6.312,6.312,0,0,0,1.16-1.591c.125-.231.252-.461.378-.692.06-.029.053-.1.086-.143a.123.123,0,0,0,.018.157,7.325,7.325,0,0,0,.61,2.129,3.7,3.7,0,0,0,.508.844,1.288,1.288,0,0,0,1.762.314A5.432,5.432,0,0,0-2.3,9.3,10.108,10.108,0,0,0-.264,6.834C.318,5.857.909,4.887,1.5,3.916c.129-.21.273-.412.414-.614.042-.06.081-.14.182-.112a.333.333,0,0,1,.009.1c-.216.93-.405,1.866-.7,2.774a1.566,1.566,0,0,0-.088.582c.014.255.031.273.31.351a1.716,1.716,0,0,1,.5.2c.249.164.355.131.547-.095a6.1,6.1,0,0,0,.691-1.021c.374-.678.749-1.356,1.117-2.036a4.142,4.142,0,0,1,.914-1.217c.16,0,.16,0,.11.2a5.322,5.322,0,0,0-.066,1.769A2.655,2.655,0,0,0,6.644,6.518a1.444,1.444,0,0,0,.513.166,3.429,3.429,0,0,0,2.1-.378,8.764,8.764,0,0,0,2.364-2c.634-.739,1.205-1.525,1.8-2.3.29-.379.59-.752.873-1.136.3-.4.286-.412-.052-.771m-57.165,8.94q-.179.565-.377,1.122a7.9,7.9,0,0,1-1.368,2.33,2.738,2.738,0,0,1-.377.39.546.546,0,0,1-.879-.14,1.6,1.6,0,0,1-.2-.9,3.1,3.1,0,0,1,.087-.732,8.15,8.15,0,0,1,1.055-2.592,2.564,2.564,0,0,1,.6-.649.779.779,0,0,1,.962-.044.906.906,0,0,1,.083.053c.721.542.687.3.413,1.166m6.822-1.188c-.025.038-.082.083-.114.077-.074-.014-.087-.09-.086-.156a4.661,4.661,0,0,1,.335-2.026c.108-.222.195-.453.3-.677a2.306,2.306,0,0,1,.486-.679,1.124,1.124,0,0,1,.194-.148.164.164,0,0,1,.236.1c.021.129.03.261.044.391a3.127,3.127,0,0,1-.342,1.282,12.131,12.131,0,0,1-1.055,1.839M-9.642,1.7a1.413,1.413,0,0,1-.092.227A25.841,25.841,0,0,1-12.107,5.9,4.157,4.157,0,0,1-13.113,6.9c-.022.017-.06.012-.117.022A7.078,7.078,0,0,1-13,5.77a7.585,7.585,0,0,1,1.5-3.075A4.769,4.769,0,0,1-10.05,1.518a.736.736,0,0,1,.132-.065.221.221,0,0,1,.231.016.215.215,0,0,1,.044.23" transform="translate(47.66 0.344)" fill="#00AB91"/>
        </g>
        <g id="Groupe_20" data-name="Groupe 20" transform="translate(0 12.853)">
          <path id="Tracé_35" data-name="Tracé 35" d="M2.133,1.009a1.313,1.313,0,0,0-.855-.3A.4.4,0,0,0,.906.958c-.047.106-.09.213-.136.318A3.552,3.552,0,0,1,0,2.354,2.423,2.423,0,0,1-.4,2.647a.175.175,0,0,1-.255-.069c-.035-.055-.065-.114-.1-.171A6.811,6.811,0,0,1-1.563-.816c0-.255.013-.5.3-.61a.307.307,0,0,0,.079-.057c.323-.26.349-.453.112-.8a.9.9,0,0,0-.06-.079c-.2-.222-.391-.445-.59-.665a.875.875,0,0,0-.37-.238,1.579,1.579,0,0,0-1.419.123A6.263,6.263,0,0,0-5.467-1.293,12.079,12.079,0,0,0-6.391.394a6.249,6.249,0,0,0-.43,1.156A15.072,15.072,0,0,0-7.12,3.3a3.6,3.6,0,0,0,.052,1.131.947.947,0,0,0,.927.794,2,2,0,0,0,1.479-.57A5.561,5.561,0,0,0-3.176,2.708c.132-.3.278-.592.414-.882.119.022.138.106.17.181.142.334.278.67.431,1a4.682,4.682,0,0,0,.356.648,1.326,1.326,0,0,0,1.119.613A1.9,1.9,0,0,0,.522,3.9,4.994,4.994,0,0,0,2.21,1.817a1.894,1.894,0,0,0,.118-.377c.057-.255.039-.3-.195-.431M-3.191-1.3A8.345,8.345,0,0,1-3.907.691c-.229.456-.444.918-.658,1.381A3.881,3.881,0,0,1-5.351,3.2c-.044.044-.086.1-.174.09-.086-.095-.035-.209-.017-.313.049-.291.112-.581.168-.87,0-.017,0-.034.008-.049A7.1,7.1,0,0,1-3.3-1.41c.1-.027.139.01.112.113" transform="translate(7.142 3.38)" fill="#00AB91"/>
        </g>
        <g id="Groupe_21" data-name="Groupe 21" transform="translate(3.839 14.745)">
          <path id="Tracé_36" data-name="Tracé 36" d="M.026.044-.086-.069C-.051-.133.006-.177.066-.12S.076,0,.026.044" transform="translate(0.086 0.146)" fill="#00AB91"/>
        </g>
      </g>
    </g>
  </g>
</svg>
