<svg width="44" height="44" viewBox="0 0 44 44" fill="none" xmlns="http://www.w3.org/2000/svg">
  <defs xmlns="http://www.w3.org/2000/svg">
    <clipPath id="clip-path">
      <rect id="Rectangle_1644" width="20.984" height="36.441" fill="#fff"/>
    </clipPath>
  </defs>
  <g xmlns="http://www.w3.org/2000/svg" id="Groupe_3782">
    <g id="Groupe_3781">
      <rect id="Rectangle_1645" width="44" height="44" rx="5" fill="#2f4c98"/>
    </g>
    <g id="Groupe_3779" transform="translate(12 4)">
      <g id="Groupe_3778" clip-path="url(#clip-path)">
        <path id="Tracé_1965" d="M43.339,3.265l1.137-.778V5.735a.859.859,0,1,0,1.717,0V2.486l1.137.778a.858.858,0,1,0,.97-1.417L45.822.152,45.8.136l-.008,0C45.763.115,45.737.1,45.713.09a.54.54,0,0,0-.056-.027.608.608,0,0,0-.067-.022L45.573.036A.65.65,0,0,0,45.5.016a.615.615,0,0,0-.07-.008h-.01L45.364,0h-.058l-.053.005-.016,0a.574.574,0,0,0-.063.008.647.647,0,0,0-.077.02l-.018.005a.618.618,0,0,0-.067.022.587.587,0,0,0-.059.029c-.019.009-.044.022-.073.039l-2.51,1.716a.859.859,0,0,0,.97,1.417" transform="translate(-38.73)" fill="#fff"/>
        <path id="Tracé_1966" d="M143.623,4.746l2.478,1.7.023.016.008,0c.028.017.054.03.078.042a.511.511,0,0,0,.054.026.625.625,0,0,0,.068.022l.018.005a.651.651,0,0,0,.076.02.6.6,0,0,0,.07.008h.01l.053.005h.058l.053-.005.016,0a.575.575,0,0,0,.063-.008.666.666,0,0,0,.077-.02l.018-.005a.623.623,0,0,0,.068-.022.588.588,0,0,0,.06-.029c.019-.009.044-.022.072-.039l2.51-1.716a.858.858,0,0,0-.97-1.417l-1.137.778V.858a.858.858,0,0,0-1.717,0V4.108l-1.137-.778a.859.859,0,0,0-.97,1.417" transform="translate(-132.109)" fill="#fff"/>
        <path id="Tracé_1967" d="M17.141,98.772H3.843A3.848,3.848,0,0,0,0,102.615v21.074a3.848,3.848,0,0,0,3.843,3.843h13.3a3.848,3.848,0,0,0,3.843-3.843V102.615a3.848,3.848,0,0,0-3.843-3.843m1.944,3.843v21.074a1.946,1.946,0,0,1-1.944,1.944H3.843A1.946,1.946,0,0,1,1.9,123.689V102.615a1.946,1.946,0,0,1,1.944-1.944h13.3a1.946,1.946,0,0,1,1.944,1.944" transform="translate(0 -91.091)" fill="#fff"/>
        <path id="Tracé_1968" d="M94.194,205.267H90.055a1.65,1.65,0,0,0-1.539,1.726v5.326c0,.486.264.883.7.883s.7-.4.7-.883v-4.335c0-.1.151-.191.238-.207a.149.149,0,0,1,.079.007v13.45a.859.859,0,0,0,.877.836.82.82,0,0,0,.831-.836V213.15c0-.059.1-.107.158-.107h.056c.062,0,.158.048.158.107v8.083a.82.82,0,0,0,.831.836.859.859,0,0,0,.877-.836v-13.45a.149.149,0,0,1,.079-.007c.087.016.238.108.238.207v4.335c0,.486.264.883.7.883s.7-.4.7-.883v-5.326a1.65,1.65,0,0,0-1.539-1.726" transform="translate(-81.632 -189.304)" fill="#fff"/>
        <path id="Tracé_1969" d="M116.516,164.383a1.552,1.552,0,1,0-1.552-1.552,1.552,1.552,0,0,0,1.552,1.552" transform="translate(-106.024 -148.738)" fill="#fff"/>
      </g>
    </g>
  </g>
</svg>